<svg xmlns="http://www.w3.org/2000/svg" viewBox="0 0 100 125" x="0px" y="0px"><path d="M49.28,11.78l37.8,65.47,5.5,9.53,1.3-2.26H7.28l1.3,2.26,37.8-65.47,5.5-9.53a1.5,1.5,0,0,0-2.59-1.51L11.49,75.73,6,85.26a1.51,1.51,0,0,0,1.3,2.26h86.6a1.51,1.51,0,0,0,1.3-2.26L57.38,19.8l-5.5-9.53A1.5,1.5,0,0,0,49.28,11.78Z"/><path d="M21.76,63.06c5.1-3.38,11.41-7,17.72-5.17,4.64,1.35,8.35,5,12.3,7.65,9.27,6.13,18.21,3.22,27-2.47,1.61-1,.11-3.65-1.51-2.59-6,3.92-13.5,7.91-20.64,4.45-4.21-2-7.61-5.4-11.62-7.77-8.58-5.06-17-1.82-24.74,3.32-1.6,1.06-.1,3.66,1.51,2.59Z"/></svg>
